<svg width="31" height="25" viewBox="0 0 31 25" fill="none" xmlns="http://www.w3.org/2000/svg">
<g clip-path="url(#clip0_79_1560)">
<path d="M30.1427 13.2373L24.5675 11.0396C24.3677 10.96 23.9562 10.8562 23.4898 11.0396L17.9122 13.2373C17.3891 13.4375 17.05 13.9209 17.05 14.4092C17.05 19.8584 20.3801 23.6279 23.4873 24.8535C23.9536 25.0366 24.3592 24.9329 24.5651 24.8535C27.0475 23.9209 31 20.5322 31 14.4092C31 13.9209 30.6609 13.4375 30.1427 13.2373ZM24.025 22.5781V13.3398L28.6508 15.165C28.3795 19.4238 25.7009 21.7773 24.025 22.5781ZM10.85 12.5C14.2745 12.5 17.05 9.70166 17.05 6.25C17.05 2.79834 14.2745 0 10.85 0C7.42547 0 4.65 2.79834 4.65 6.25C4.65 9.70166 7.42547 12.5 10.85 12.5ZM15.5291 15.1514C14.817 14.9561 14.0759 14.8438 13.3058 14.8438H8.39422C3.75923 14.8438 0 18.6377 0 23.3105C0 24.2432 0.75175 25 1.67884 25H20.0192C20.1715 25 20.3082 24.951 20.4484 24.9126C17.9073 22.9395 15.6986 19.5459 15.5291 15.1514Z" fill="white"/>
</g>
<defs>
<clipPath id="clip0_79_1560">
<rect width="31" height="25" fill="white"/>
</clipPath>
</defs>
</svg>