


<svg width="20" height="20" viewBox="0 0 20 20" fill="none" xmlns="http://www.w3.org/2000/svg">
<path d="M17.965 2.9934L17.0067 2.03507C16.8912 1.91816 16.7537 1.82534 16.602 1.76199C16.4504 1.69864 16.2877 1.66602 16.1234 1.66602C15.959 1.66602 15.7963 1.69864 15.6447 1.76199C15.4931 1.82534 15.3555 1.91816 15.24 2.03507L10.8334 6.44257V9.16673H13.5584L17.965 4.76007C18.0819 4.64458 18.1748 4.50703 18.2381 4.3554C18.3015 4.20377 18.3341 4.04107 18.3341 3.87673C18.3341 3.7124 18.3015 3.5497 18.2381 3.39807C18.1748 3.24644 18.0819 3.10889 17.965 2.9934ZM12.9825 7.87507H12.1242V7.01673L15 4.14423L15.8584 5.00257L12.9825 7.87507Z" fill="white"/>
<path d="M15.8333 15.8333H4.16667V4.16667H9.16667V2.5H4.16667C3.72504 2.50132 3.30189 2.67734 2.98961 2.98961C2.67734 3.30189 2.50132 3.72504 2.5 4.16667V15.8333C2.50132 16.275 2.67734 16.6981 2.98961 17.0104C3.30189 17.3227 3.72504 17.4987 4.16667 17.5H15.8333C16.275 17.4987 16.6981 17.3227 17.0104 17.0104C17.3227 16.6981 17.4987 16.275 17.5 15.8333V10.8333H15.8333V15.8333Z" fill="white"/>
</svg>
