<svg width="31" height="26" viewBox="0 0 31 26" fill="none" xmlns="http://www.w3.org/2000/svg">
<path d="M12.4 3.05882C12.4 2.24757 12.7266 1.46955 13.308 0.895909C13.8893 0.322268 14.6778 0 15.5 0C16.3222 0 17.1107 0.322268 17.692 0.895909C18.2734 1.46955 18.6 2.24757 18.6 3.05882V4.95529C21.3694 5.63535 23.8281 7.21101 25.584 9.43087C27.3398 11.6507 28.2916 14.3869 28.2875 17.2028C28.2875 17.507 28.165 17.7988 27.947 18.0139C27.729 18.229 27.4333 18.3499 27.125 18.3499H3.875C3.56669 18.3499 3.271 18.229 3.05299 18.0139C2.83498 17.7988 2.7125 17.507 2.7125 17.2028C2.7125 11.2993 6.8479 6.34706 12.4 4.96906V3.05882ZM17.4375 8.41177C17.1292 8.41177 16.8335 8.53262 16.6155 8.74773C16.3975 8.96285 16.275 9.2546 16.275 9.55882C16.275 9.86304 16.3975 10.1548 16.6155 10.3699C16.8335 10.585 17.1292 10.7059 17.4375 10.7059C19.3797 10.7059 20.7591 11.6511 21.9108 13.2753C21.9983 13.3987 22.1096 13.5039 22.2384 13.5849C22.3671 13.6659 22.5107 13.721 22.6611 13.7472C22.8114 13.7734 22.9655 13.7702 23.1145 13.7376C23.2636 13.705 23.4047 13.6438 23.5298 13.5575C23.6549 13.4711 23.7615 13.3613 23.8435 13.2343C23.9256 13.1072 23.9815 12.9655 24.0081 12.8172C24.0346 12.6688 24.0313 12.5168 23.9983 12.3697C23.9653 12.2226 23.9033 12.0834 23.8157 11.96C22.3742 9.92588 20.3608 8.41177 17.4375 8.41177ZM0 22.9412C0 22.1299 0.326606 21.3519 0.907969 20.7783C1.48933 20.2046 2.27783 19.8824 3.1 19.8824H27.9C28.7222 19.8824 29.5107 20.2046 30.092 20.7783C30.6734 21.3519 31 22.1299 31 22.9412C31 23.7524 30.6734 24.5305 30.092 25.1041C29.5107 25.6777 28.7222 26 27.9 26H3.1C2.27783 26 1.48933 25.6777 0.907969 25.1041C0.326606 24.5305 0 23.7524 0 22.9412Z" fill="currentColor"/>
</svg>
