<svg width="20" height="20" viewBox="0 0 20 20" fill="none" xmlns="http://www.w3.org/2000/svg">
<path d="M17.965 2.99334L17.0067 2.03501C16.8912 1.9181 16.7537 1.82528 16.602 1.76193C16.4504 1.69858 16.2877 1.66595 16.1234 1.66595C15.959 1.66595 15.7963 1.69858 15.6447 1.76193C15.4931 1.82528 15.3555 1.9181 15.24 2.03501L10.8334 6.44251V9.16667H13.5584L17.965 4.76001C18.0819 4.64452 18.1748 4.50697 18.2381 4.35534C18.3015 4.2037 18.3341 4.04101 18.3341 3.87667C18.3341 3.71234 18.3015 3.54964 18.2381 3.39801C18.1748 3.24638 18.0819 3.10883 17.965 2.99334ZM12.9825 7.87501H12.1242V7.01667L15 4.14417L15.8584 5.00251L12.9825 7.87501Z" fill="black"/>
<path d="M15.8333 15.8333H4.16667V4.16667H9.16667V2.5H4.16667C3.72504 2.50132 3.30189 2.67734 2.98961 2.98961C2.67734 3.30189 2.50132 3.72504 2.5 4.16667V15.8333C2.50132 16.275 2.67734 16.6981 2.98961 17.0104C3.30189 17.3227 3.72504 17.4987 4.16667 17.5H15.8333C16.275 17.4987 16.6981 17.3227 17.0104 17.0104C17.3227 16.6981 17.4987 16.275 17.5 15.8333V10.8333H15.8333V15.8333Z" fill="black"/>
</svg>

