<svg width="27" height="27" viewBox="0 0 27 27" fill="none" xmlns="http://www.w3.org/2000/svg">
<g clip-path="url(#clip0_35_523)">
<path d="M4.7325 13.5C4.7325 13.3011 4.65348 13.1103 4.51283 12.9697C4.37217 12.829 4.18141 12.75 3.9825 12.75H1.4325C1.23358 12.75 1.04282 12.829 0.902165 12.9697C0.761513 13.1103 0.682495 13.3011 0.682495 13.5C0.682495 13.6989 0.761513 13.8897 0.902165 14.0303C1.04282 14.171 1.23358 14.25 1.4325 14.25H3.9825C4.18141 14.25 4.37217 14.171 4.51283 14.0303C4.65348 13.8897 4.7325 13.6989 4.7325 13.5Z" fill="white" fill-opacity="0.95"/>
<path d="M22.2675 13.5C22.2675 13.6989 22.3465 13.8897 22.4872 14.0303C22.6278 14.171 22.8186 14.25 23.0175 14.25H25.5675C25.7664 14.25 25.9572 14.171 26.0978 14.0303C26.2385 13.8897 26.3175 13.6989 26.3175 13.5C26.3175 13.3011 26.2385 13.1103 26.0978 12.9697C25.9572 12.829 25.7664 12.75 25.5675 12.75H23.0175C22.8186 12.75 22.6278 12.829 22.4872 12.9697C22.3465 13.1103 22.2675 13.3011 22.2675 13.5Z" fill="white" fill-opacity="0.95"/>
<path d="M7.30499 20.7599C7.43176 20.6204 7.50137 20.4384 7.49999 20.2499C7.50056 20.1512 7.48164 20.0533 7.44431 19.962C7.40699 19.8706 7.352 19.7875 7.28249 19.7174C7.21276 19.6471 7.12981 19.5913 7.03842 19.5532C6.94702 19.5151 6.84899 19.4955 6.74999 19.4955C6.65098 19.4955 6.55295 19.5151 6.46155 19.5532C6.37016 19.5913 6.28721 19.6471 6.21749 19.7174L4.43999 21.5024C4.31712 21.6459 4.25291 21.8304 4.2602 22.0192C4.26749 22.2079 4.34574 22.387 4.47931 22.5206C4.61288 22.6541 4.79194 22.7324 4.9807 22.7397C5.16945 22.747 5.35401 22.6828 5.49749 22.5599L7.30499 20.7599Z" fill="white" fill-opacity="0.95"/>
<path d="M19.695 6.24007C19.6251 6.30999 19.5696 6.39301 19.5317 6.48438C19.4939 6.57574 19.4744 6.67367 19.4744 6.77257C19.4744 6.87146 19.4939 6.96939 19.5317 7.06075C19.5696 7.15212 19.6251 7.23514 19.695 7.30507C19.7649 7.37499 19.8479 7.43047 19.9393 7.46831C20.0307 7.50616 20.1286 7.52563 20.2275 7.52563C20.3264 7.52563 20.4243 7.50616 20.5157 7.46831C20.607 7.43047 20.6901 7.37499 20.76 7.30507L22.56 5.49757C22.6309 5.42811 22.6872 5.34527 22.7259 5.25387C22.7645 5.16246 22.7846 5.0643 22.785 4.96507C22.7822 4.76724 22.7013 4.57854 22.56 4.44007C22.4195 4.30038 22.2294 4.22197 22.0312 4.22197C21.8331 4.22197 21.643 4.30038 21.5025 4.44007L19.695 6.24007Z" fill="white" fill-opacity="0.95"/>
<path d="M13.5 22.2674C13.3011 22.2674 13.1103 22.3464 12.9697 22.4871C12.829 22.6277 12.75 22.8185 12.75 23.0174V25.5674C12.75 25.7663 12.829 25.9571 12.9697 26.0977C13.1103 26.2384 13.3011 26.3174 13.5 26.3174C13.6989 26.3174 13.8897 26.2384 14.0303 26.0977C14.171 25.9571 14.25 25.7663 14.25 25.5674V23.0174C14.25 22.8185 14.171 22.6277 14.0303 22.4871C13.8897 22.3464 13.6989 22.2674 13.5 22.2674Z" fill="white" fill-opacity="0.95"/>
<path d="M12.75 1.43242V3.98242C12.75 4.18133 12.829 4.3721 12.9697 4.51275C13.1103 4.6534 13.3011 4.73242 13.5 4.73242C13.6989 4.73242 13.8897 4.6534 14.0303 4.51275C14.171 4.3721 14.25 4.18133 14.25 3.98242V1.43242C14.25 1.23351 14.171 1.04274 14.0303 0.902091C13.8897 0.761439 13.6989 0.682422 13.5 0.682422C13.3011 0.682422 13.1103 0.761439 12.9697 0.902091C12.829 1.04274 12.75 1.23351 12.75 1.43242Z" fill="white" fill-opacity="0.95"/>
<path d="M19.695 20.7599L21.5025 22.5599C21.6069 22.6652 21.7403 22.7372 21.8856 22.7667C22.031 22.7963 22.1819 22.782 22.3191 22.7258C22.4564 22.6696 22.5739 22.574 22.6569 22.451C22.7398 22.328 22.7844 22.1832 22.785 22.0349C22.7846 21.9357 22.7645 21.8375 22.7259 21.7461C22.6872 21.6547 22.6309 21.5718 22.56 21.5024L20.76 19.6949C20.6188 19.5537 20.4272 19.4743 20.2275 19.4743C20.0278 19.4743 19.8362 19.5537 19.695 19.6949C19.5538 19.8361 19.4744 20.0277 19.4744 20.2274C19.4744 20.4271 19.5538 20.6187 19.695 20.7599Z" fill="white" fill-opacity="0.95"/>
<path d="M7.5 6.75005C7.50057 6.65134 7.48165 6.55349 7.44432 6.46212C7.407 6.37074 7.35201 6.28763 7.2825 6.21755L5.475 4.41754C5.33447 4.27786 5.14439 4.19945 4.94625 4.19945C4.74811 4.19945 4.55802 4.27786 4.4175 4.41754C4.27781 4.55807 4.1994 4.74816 4.1994 4.94629C4.1994 5.14443 4.27781 5.33452 4.4175 5.47504L6.2175 7.28255C6.28722 7.35284 6.37017 7.40864 6.46156 7.44671C6.55296 7.48479 6.65099 7.50439 6.75 7.50439C6.84901 7.50439 6.94703 7.48479 7.03843 7.44671C7.12982 7.40864 7.21277 7.35284 7.2825 7.28255C7.35201 7.21246 7.407 7.12935 7.44432 7.03798C7.48165 6.9466 7.50057 6.84875 7.5 6.75005Z" fill="white" fill-opacity="0.95"/>
<path d="M5.81252 13.4024C5.79318 14.9091 6.22228 16.3874 7.04526 17.6496C7.86824 18.9117 9.04794 19.9007 10.4344 20.4907C11.8208 21.0807 13.3514 21.2452 14.8315 20.9631C16.3117 20.6811 17.6745 19.9653 18.7468 18.9067C19.8191 17.8482 20.5525 16.4947 20.8536 15.0183C21.1547 13.542 21.0101 12.0094 20.438 10.6154C19.866 9.22149 18.8923 8.02912 17.6409 7.1899C16.3895 6.35069 14.9168 5.90253 13.41 5.90241C11.4088 5.89242 9.48535 6.67629 8.06118 8.08218C6.63702 9.48807 5.82837 11.4013 5.81252 13.4024ZM19.5 13.4024C19.5194 14.6127 19.1781 15.8013 18.5196 16.8169C17.8612 17.8326 16.9153 18.6293 15.8026 19.1055C14.6898 19.5818 13.4604 19.7161 12.2711 19.4914C11.0817 19.2666 9.98616 18.693 9.12393 17.8435C8.26169 16.994 7.67179 15.9071 7.42935 14.7212C7.18692 13.5353 7.30291 12.3041 7.76257 11.1844C8.22222 10.0646 9.00474 9.10703 10.0105 8.43353C11.0162 7.76002 12.1996 7.40108 13.41 7.40241C15.0121 7.3944 16.5521 8.02111 17.6934 9.14549C18.8346 10.2699 19.4842 11.8004 19.5 13.4024Z" fill="white" fill-opacity="0.95"/>
</g>
<defs>
<clipPath id="clip0_35_523">
<rect width="27" height="27" fill="white"/>
</clipPath>
</defs>
</svg>
