<svg width="385" height="309" viewBox="0 0 385 309" fill="none" xmlns="http://www.w3.org/2000/svg">
<path d="M20.6226 264.705C20.6226 263.435 20.752 262.415 21.0107 261.643C21.2744 260.867 21.6626 260.269 22.1753 259.849C22.6929 259.429 23.3423 259.219 24.1235 259.219C24.6997 259.219 25.2051 259.336 25.6396 259.57C26.0742 259.8 26.4331 260.134 26.7163 260.574C26.9995 261.008 27.2217 261.541 27.3828 262.17C27.5439 262.795 27.6245 263.64 27.6245 264.705C27.6245 265.964 27.4951 266.982 27.2363 267.759C26.9775 268.53 26.5894 269.128 26.0718 269.553C25.5591 269.973 24.9097 270.183 24.1235 270.183C23.0884 270.183 22.2754 269.812 21.6846 269.07C20.9766 268.176 20.6226 266.721 20.6226 264.705ZM21.9775 264.705C21.9775 266.467 22.1826 267.642 22.5928 268.228C23.0078 268.809 23.5181 269.099 24.1235 269.099C24.729 269.099 25.2368 268.806 25.647 268.22C26.062 267.634 26.2695 266.462 26.2695 264.705C26.2695 262.937 26.062 261.763 25.647 261.182C25.2368 260.601 24.7241 260.31 24.1089 260.31C23.5034 260.31 23.02 260.566 22.6587 261.079C22.2046 261.733 21.9775 262.942 21.9775 264.705Z" fill="#838383"/>
<path d="M22.5513 184.733V186H15.4541C15.4443 185.683 15.4956 185.377 15.6079 185.084C15.7886 184.601 16.0767 184.125 16.4722 183.656C16.8726 183.188 17.4487 182.646 18.2007 182.03C19.3677 181.073 20.1562 180.316 20.5664 179.76C20.9766 179.198 21.1816 178.668 21.1816 178.17C21.1816 177.648 20.9937 177.208 20.6177 176.852C20.2466 176.491 19.7607 176.31 19.1602 176.31C18.5254 176.31 18.0176 176.5 17.6367 176.881C17.2559 177.262 17.063 177.79 17.0581 178.463L15.7031 178.324C15.7959 177.313 16.145 176.544 16.7505 176.017C17.356 175.485 18.1689 175.219 19.1895 175.219C20.2197 175.219 21.0352 175.504 21.6357 176.076C22.2363 176.647 22.5366 177.355 22.5366 178.2C22.5366 178.629 22.4487 179.052 22.2729 179.467C22.0972 179.882 21.8042 180.319 21.394 180.778C20.9888 181.237 20.3125 181.867 19.3652 182.667C18.5742 183.332 18.0664 183.783 17.8418 184.022C17.6172 184.257 17.4316 184.494 17.2852 184.733H22.5513ZM23.9722 180.705C23.9722 179.435 24.1016 178.415 24.3604 177.643C24.624 176.867 25.0122 176.269 25.5249 175.849C26.0425 175.429 26.6919 175.219 27.4731 175.219C28.0493 175.219 28.5547 175.336 28.9893 175.57C29.4238 175.8 29.7827 176.134 30.0659 176.574C30.3491 177.008 30.5713 177.541 30.7324 178.17C30.8936 178.795 30.9741 179.64 30.9741 180.705C30.9741 181.964 30.8447 182.982 30.5859 183.759C30.3271 184.53 29.939 185.128 29.4214 185.553C28.9087 185.973 28.2593 186.183 27.4731 186.183C26.438 186.183 25.625 185.812 25.0342 185.07C24.3262 184.176 23.9722 182.721 23.9722 180.705ZM25.3271 180.705C25.3271 182.467 25.5322 183.642 25.9424 184.228C26.3574 184.809 26.8677 185.099 27.4731 185.099C28.0786 185.099 28.5864 184.806 28.9966 184.22C29.4116 183.634 29.6191 182.462 29.6191 180.705C29.6191 178.937 29.4116 177.763 28.9966 177.182C28.5864 176.601 28.0737 176.31 27.4585 176.31C26.853 176.31 26.3696 176.566 26.0083 177.079C25.5542 177.733 25.3271 178.942 25.3271 180.705Z" fill="#838383"/>
<path d="M19.8486 102V99.4292H15.1904V98.2207L20.0903 91.2627H21.167V98.2207H22.6172V99.4292H21.167V102H19.8486ZM19.8486 98.2207V93.3794L16.4868 98.2207H19.8486ZM23.9722 96.7046C23.9722 95.4351 24.1016 94.4146 24.3604 93.6431C24.624 92.8667 25.0122 92.2686 25.5249 91.8486C26.0425 91.4287 26.6919 91.2188 27.4731 91.2188C28.0493 91.2188 28.5547 91.3359 28.9893 91.5703C29.4238 91.7998 29.7827 92.1343 30.0659 92.5737C30.3491 93.0083 30.5713 93.5405 30.7324 94.1704C30.8936 94.7954 30.9741 95.6401 30.9741 96.7046C30.9741 97.9644 30.8447 98.9824 30.5859 99.7588C30.3271 100.53 29.939 101.128 29.4214 101.553C28.9087 101.973 28.2593 102.183 27.4731 102.183C26.438 102.183 25.625 101.812 25.0342 101.07C24.3262 100.176 23.9722 98.7212 23.9722 96.7046ZM25.3271 96.7046C25.3271 98.4673 25.5322 99.6416 25.9424 100.228C26.3574 100.809 26.8677 101.099 27.4731 101.099C28.0786 101.099 28.5864 100.806 28.9966 100.22C29.4116 99.6343 29.6191 98.4624 29.6191 96.7046C29.6191 94.937 29.4116 93.7627 28.9966 93.1816C28.5864 92.6006 28.0737 92.3101 27.4585 92.3101C26.853 92.3101 26.3696 92.5664 26.0083 93.0791C25.5542 93.7334 25.3271 94.9419 25.3271 96.7046Z" fill="#838383"/>
<path d="M22.4634 9.89209L21.1523 9.99463C21.0352 9.47705 20.8691 9.10107 20.6543 8.8667C20.2979 8.49072 19.8584 8.30273 19.3359 8.30273C18.916 8.30273 18.5474 8.41992 18.23 8.6543C17.8149 8.95703 17.4878 9.39893 17.2485 9.97998C17.0093 10.561 16.8848 11.3887 16.875 12.4629C17.1924 11.9795 17.5806 11.6206 18.0396 11.3862C18.4985 11.1519 18.9795 11.0347 19.4824 11.0347C20.3613 11.0347 21.1084 11.3594 21.7236 12.0088C22.3438 12.6533 22.6538 13.4883 22.6538 14.5137C22.6538 15.1875 22.5073 15.8149 22.2144 16.396C21.9263 16.9722 21.5283 17.4141 21.0205 17.7217C20.5127 18.0293 19.9365 18.1831 19.292 18.1831C18.1934 18.1831 17.2974 17.7803 16.604 16.9746C15.9106 16.1641 15.564 14.8311 15.564 12.9756C15.564 10.9004 15.9473 9.3916 16.7139 8.44922C17.3828 7.62891 18.2837 7.21875 19.4165 7.21875C20.2612 7.21875 20.9521 7.45557 21.4893 7.9292C22.0312 8.40283 22.356 9.05713 22.4634 9.89209ZM17.0801 14.521C17.0801 14.9751 17.1753 15.4097 17.3657 15.8247C17.561 16.2397 17.832 16.5571 18.1787 16.7769C18.5254 16.9917 18.8892 17.0991 19.27 17.0991C19.8267 17.0991 20.3052 16.8745 20.7056 16.4253C21.106 15.9761 21.3062 15.3657 21.3062 14.5942C21.3062 13.8521 21.1084 13.2686 20.7129 12.8438C20.3174 12.4141 19.8193 12.1992 19.2188 12.1992C18.623 12.1992 18.1177 12.4141 17.7026 12.8438C17.2876 13.2686 17.0801 13.8276 17.0801 14.521ZM23.9722 12.7046C23.9722 11.4351 24.1016 10.4146 24.3604 9.64307C24.624 8.8667 25.0122 8.26855 25.5249 7.84863C26.0425 7.42871 26.6919 7.21875 27.4731 7.21875C28.0493 7.21875 28.5547 7.33594 28.9893 7.57031C29.4238 7.7998 29.7827 8.13428 30.0659 8.57373C30.3491 9.0083 30.5713 9.54053 30.7324 10.1704C30.8936 10.7954 30.9741 11.6401 30.9741 12.7046C30.9741 13.9644 30.8447 14.9824 30.5859 15.7588C30.3271 16.5303 29.939 17.1284 29.4214 17.5532C28.9087 17.9731 28.2593 18.1831 27.4731 18.1831C26.438 18.1831 25.625 17.812 25.0342 17.0698C24.3262 16.1763 23.9722 14.7212 23.9722 12.7046ZM25.3271 12.7046C25.3271 14.4673 25.5322 15.6416 25.9424 16.2275C26.3574 16.8086 26.8677 17.0991 27.4731 17.0991C28.0786 17.0991 28.5864 16.8062 28.9966 16.2202C29.4116 15.6343 29.6191 14.4624 29.6191 12.7046C29.6191 10.937 29.4116 9.7627 28.9966 9.18164C28.5864 8.60059 28.0737 8.31006 27.4585 8.31006C26.853 8.31006 26.3696 8.56641 26.0083 9.0791C25.5542 9.7334 25.3271 10.9419 25.3271 12.7046Z" fill="#838383"/>
<path d="M9 69.1094L0.410156 69.1094L0.410156 67.3984L6.49219 65.3652C7.05859 65.1777 7.48242 65.041 7.76367 64.9551C7.45117 64.8574 6.99219 64.7051 6.38672 64.498L0.410156 62.4414L0.410156 60.9121L9 60.9121L9 62.0078L1.81055 62.0078L9 64.5039L9 65.5293L1.6875 68.0137L9 68.0137L9 69.1094ZM5.88867 59.6055C4.73633 59.6055 3.88281 59.2852 3.32812 58.6445C2.86719 58.1094 2.63672 57.457 2.63672 56.6875C2.63672 55.832 2.91797 55.1328 3.48047 54.5898C4.03906 54.0469 4.8125 53.7754 5.80078 53.7754C6.60156 53.7754 7.23242 53.8965 7.69336 54.1387C8.15039 54.377 8.50586 54.7266 8.75976 55.1875C9.01367 55.6445 9.14062 56.1445 9.14062 56.6875C9.14062 57.5586 8.86133 58.2637 8.30273 58.8027C7.74414 59.3379 6.93945 59.6055 5.88867 59.6055ZM5.88867 58.5215C6.68555 58.5215 7.2832 58.3477 7.68164 58C8.07617 57.6523 8.27344 57.2148 8.27344 56.6875C8.27344 56.1641 8.07422 55.7285 7.67578 55.3809C7.27734 55.0332 6.66992 54.8594 5.85351 54.8594C5.08398 54.8594 4.50195 55.0352 4.10742 55.3867C3.70898 55.7344 3.50977 56.168 3.50977 56.6875C3.50977 57.2148 3.70703 57.6523 4.10156 58C4.49609 58.3477 5.0918 58.5215 5.88867 58.5215ZM9 52.5332L2.77734 52.5332L2.77734 51.584L3.66211 51.584C2.97851 51.127 2.63672 50.4668 2.63672 49.6035C2.63672 49.2285 2.70508 48.8848 2.8418 48.5723C2.97461 48.2559 3.15039 48.0195 3.36914 47.8633C3.58789 47.707 3.84766 47.5977 4.14844 47.5352C4.34375 47.4961 4.68555 47.4766 5.17383 47.4766L9 47.4766L9 48.5312L5.21484 48.5312C4.78516 48.5312 4.46484 48.5723 4.25391 48.6543C4.03906 48.7363 3.86914 48.8828 3.74414 49.0937C3.61523 49.3008 3.55078 49.5449 3.55078 49.8262C3.55078 50.2754 3.69336 50.6641 3.97851 50.9922C4.26367 51.3164 4.80469 51.4785 5.60156 51.4785L9 51.4785L9 52.5332ZM8.05664 43.5508L8.98828 43.3984C9.05078 43.6953 9.08203 43.9609 9.08203 44.1953C9.08203 44.5781 9.02148 44.875 8.90039 45.0859C8.7793 45.2969 8.62109 45.4453 8.42578 45.5312C8.22656 45.6172 7.81055 45.6602 7.17773 45.6602L3.59766 45.6602L3.59766 46.4336L2.77734 46.4336L2.77734 45.6602L1.23633 45.6602L0.603515 44.6113L2.77734 44.6113L2.77734 43.5508L3.59766 43.5508L3.59766 44.6113L7.23633 44.6113C7.53711 44.6113 7.73047 44.5937 7.81641 44.5586C7.90234 44.5195 7.9707 44.459 8.02148 44.377C8.07226 44.291 8.09766 44.1699 8.09766 44.0137C8.09766 43.8965 8.08398 43.7422 8.05664 43.5508ZM8.23242 38.4531C8.56445 38.8437 8.79883 39.2207 8.93555 39.584C9.07226 39.9434 9.14062 40.3301 9.14062 40.7441C9.14062 41.4277 8.97461 41.9531 8.64258 42.3203C8.30664 42.6875 7.87891 42.8711 7.35937 42.8711C7.05469 42.8711 6.77734 42.8027 6.52734 42.666C6.27344 42.5254 6.07031 42.3437 5.91797 42.1211C5.76562 41.8945 5.65039 41.6406 5.57226 41.3594C5.51758 41.1523 5.46484 40.8398 5.41406 40.4219C5.3125 39.5703 5.1914 38.9434 5.05078 38.541C4.90625 38.5371 4.81445 38.5352 4.77539 38.5352C4.3457 38.5352 4.04297 38.6348 3.86719 38.834C3.6289 39.1035 3.50976 39.5039 3.50976 40.0352C3.50976 40.5312 3.59765 40.8984 3.77344 41.1367C3.94531 41.3711 4.25195 41.5449 4.69336 41.6582L4.55273 42.6895C4.11133 42.5957 3.75586 42.4414 3.48633 42.2266C3.21289 42.0117 3.00391 41.7012 2.85937 41.2949C2.71094 40.8887 2.63672 40.418 2.63672 39.8828C2.63672 39.3516 2.69922 38.9199 2.82422 38.5879C2.94922 38.2559 3.10742 38.0117 3.29883 37.8555C3.48633 37.6992 3.72461 37.5898 4.01367 37.5273C4.19336 37.4922 4.51758 37.4746 4.98633 37.4746L6.39258 37.4746C7.37305 37.4746 7.99414 37.4531 8.25586 37.4102C8.51367 37.3633 8.76172 37.2734 9 37.1406L9 38.2422C8.78125 38.3516 8.52539 38.4219 8.23242 38.4531ZM5.87695 38.541C6.0332 38.9238 6.16601 39.498 6.27539 40.2637C6.33789 40.6973 6.4082 41.0039 6.48633 41.1836C6.56445 41.3633 6.67969 41.502 6.83203 41.5996C6.98047 41.6973 7.14648 41.7461 7.33008 41.7461C7.61133 41.7461 7.8457 41.6406 8.0332 41.4297C8.2207 41.2148 8.31445 40.9023 8.31445 40.4922C8.31445 40.0859 8.22656 39.7246 8.05078 39.4082C7.87109 39.0918 7.62695 38.8594 7.31836 38.7109C7.08008 38.5977 6.72851 38.541 6.26367 38.541L5.87695 38.541ZM9 35.834L2.77734 35.834L2.77734 34.8848L3.66211 34.8848C2.97851 34.4277 2.63672 33.7676 2.63672 32.9043C2.63672 32.5293 2.70508 32.1855 2.8418 31.873C2.97461 31.5566 3.15039 31.3203 3.36914 31.1641C3.58789 31.0078 3.84765 30.8984 4.14844 30.8359C4.34375 30.7969 4.68555 30.7773 5.17383 30.7773L9 30.7773L9 31.832L5.21484 31.832C4.78515 31.832 4.46484 31.873 4.2539 31.9551C4.03906 32.0371 3.86914 32.1836 3.74414 32.3945C3.61523 32.6016 3.55078 32.8457 3.55078 33.127C3.55078 33.5762 3.69336 33.9648 3.97851 34.293C4.26367 34.6172 4.80469 34.7793 5.60156 34.7793L9 34.7793L9 35.834ZM8.05664 26.8516L8.98828 26.6992C9.05078 26.9961 9.08203 27.2617 9.08203 27.4961C9.08203 27.8789 9.02148 28.1758 8.90039 28.3867C8.7793 28.5977 8.62109 28.7461 8.42578 28.832C8.22656 28.918 7.81055 28.9609 7.17773 28.9609L3.59765 28.9609L3.59765 29.7344L2.77734 29.7344L2.77734 28.9609L1.23633 28.9609L0.603514 27.9121L2.77734 27.9121L2.77734 26.8516L3.59765 26.8516L3.59765 27.9121L7.23633 27.9121C7.53711 27.9121 7.73047 27.8945 7.8164 27.8594C7.90234 27.8203 7.9707 27.7598 8.02148 27.6777C8.07226 27.5918 8.09765 27.4707 8.09765 27.3145C8.09765 27.1973 8.08398 27.043 8.05664 26.8516ZM6.99609 18.2148L7.13086 17.125C7.76758 17.2969 8.26172 17.6152 8.61328 18.0801C8.96484 18.5449 9.14062 19.1387 9.14062 19.8613C9.14062 20.7715 8.86133 21.4941 8.30273 22.0293C7.74023 22.5605 6.95312 22.8262 5.9414 22.8262C4.89453 22.8262 4.08203 22.5566 3.5039 22.0176C2.92578 21.4785 2.63672 20.7793 2.63672 19.9199C2.63672 19.0879 2.91992 18.4082 3.48633 17.8809C4.05273 17.3535 4.84961 17.0898 5.87695 17.0898C5.93945 17.0898 6.0332 17.0918 6.1582 17.0957L6.1582 21.7363C6.84179 21.6973 7.36523 21.5039 7.72851 21.1562C8.09179 20.8086 8.27344 20.375 8.27344 19.8555C8.27344 19.4687 8.17187 19.1387 7.96875 18.8652C7.76562 18.5918 7.4414 18.375 6.99609 18.2148ZM5.29101 21.6777L5.29101 18.2031C4.76758 18.25 4.375 18.3828 4.11328 18.6016C3.70703 18.9375 3.5039 19.373 3.5039 19.9082C3.5039 20.3926 3.66601 20.8008 3.99023 21.1328C4.31445 21.4609 4.74804 21.6426 5.29101 21.6777ZM9 15.7949L2.77734 15.7949L2.77734 14.8457L3.66211 14.8457C2.97851 14.3887 2.63672 13.7285 2.63672 12.8652C2.63672 12.4902 2.70508 12.1465 2.84179 11.834C2.97461 11.5176 3.15039 11.2812 3.36914 11.125C3.58789 10.9687 3.84765 10.8594 4.14843 10.7969C4.34375 10.7578 4.68554 10.7383 5.17383 10.7383L9 10.7383L9 11.793L5.21484 11.793C4.78515 11.793 4.46484 11.834 4.2539 11.916C4.03906 11.998 3.86914 12.1445 3.74414 12.3555C3.61523 12.5625 3.55078 12.8066 3.55078 13.0879C3.55078 13.5371 3.69336 13.9258 3.97851 14.2539C4.26367 14.5781 4.80469 14.7402 5.60156 14.7402L9 14.7402L9 15.7949ZM1.23633 1.9375C1.23633 2.59375 1.39453 3.14453 1.71093 3.58984C1.89843 3.85547 2.16406 4.0957 2.50781 4.31055C2.86328 4.5293 3.20117 4.6582 3.52148 4.69727L3.52148 0.701172L4.30664 0.859375L4.30664 4.79102C4.38867 4.79492 4.46679 4.79687 4.54101 4.79687C4.84179 4.79687 5.02148 4.79492 5.08008 4.79102L5.08008 1.01758L5.86523 1.18164L5.86523 4.66797C6.75976 4.50391 7.39453 4.10937 7.76953 3.48437C8.03906 3.03516 8.17383 2.54883 8.17383 2.02539C8.17383 1.29492 7.98242 0.724609 7.59961 0.314453L8.80664 0.314453C9.0332 0.802734 9.14648 1.3418 9.14648 1.93164C9.14648 3.69727 8.41211 4.89062 6.94336 5.51172C6.64648 5.63672 6.28711 5.74414 5.86523 5.83398L5.86523 6.73047L5.08008 6.56641L5.08008 5.95117C4.91601 5.96289 4.73828 5.96875 4.54687 5.96875C4.46875 5.96875 4.38867 5.9668 4.30664 5.96289L4.30664 6.73047L3.52148 6.56641L3.52148 5.88672C2.24804 5.64453 1.33398 5.01367 0.779294 3.99414C0.435544 3.36523 0.263669 2.67187 0.263669 1.91406C0.263669 1.1875 0.421872 0.576172 0.738278 0.080078L1.82812 0.314453C1.43359 0.791015 1.23633 1.33203 1.23633 1.9375Z" fill="#838383"/>
<path d="M361.346 305.562L362.371 305.422C362.398 306.078 362.521 306.527 362.74 306.77C362.959 307.012 363.262 307.133 363.648 307.133C363.934 307.133 364.18 307.068 364.387 306.939C364.594 306.807 364.736 306.629 364.814 306.406C364.893 306.18 364.932 305.82 364.932 305.328V299.41H366.068V305.264C366.068 305.982 365.98 306.539 365.805 306.934C365.633 307.328 365.357 307.629 364.979 307.836C364.604 308.043 364.162 308.146 363.654 308.146C362.9 308.146 362.322 307.93 361.92 307.496C361.521 307.062 361.33 306.418 361.346 305.562ZM367.398 304.889C367.398 303.736 367.719 302.883 368.359 302.328C368.895 301.867 369.547 301.637 370.316 301.637C371.172 301.637 371.871 301.918 372.414 302.48C372.957 303.039 373.229 303.812 373.229 304.801C373.229 305.602 373.107 306.232 372.865 306.693C372.627 307.15 372.277 307.506 371.816 307.76C371.359 308.014 370.859 308.141 370.316 308.141C369.445 308.141 368.74 307.861 368.201 307.303C367.666 306.744 367.398 305.939 367.398 304.889ZM368.482 304.889C368.482 305.686 368.656 306.283 369.004 306.682C369.352 307.076 369.789 307.273 370.316 307.273C370.84 307.273 371.275 307.074 371.623 306.676C371.971 306.277 372.145 305.67 372.145 304.854C372.145 304.084 371.969 303.502 371.617 303.107C371.27 302.709 370.836 302.51 370.316 302.51C369.789 302.51 369.352 302.707 369.004 303.102C368.656 303.496 368.482 304.092 368.482 304.889ZM378.549 308V307.086C378.064 307.789 377.406 308.141 376.574 308.141C376.207 308.141 375.863 308.07 375.543 307.93C375.227 307.789 374.99 307.613 374.834 307.402C374.682 307.188 374.574 306.926 374.512 306.617C374.469 306.41 374.447 306.082 374.447 305.633V301.777H375.502V305.229C375.502 305.779 375.523 306.15 375.566 306.342C375.633 306.619 375.773 306.838 375.988 306.998C376.203 307.154 376.469 307.232 376.785 307.232C377.102 307.232 377.398 307.152 377.676 306.992C377.953 306.828 378.148 306.607 378.262 306.33C378.379 306.049 378.438 305.643 378.438 305.111V301.777H379.492V308H378.549ZM381.139 308V301.777H382.088V302.721C382.33 302.279 382.553 301.988 382.756 301.848C382.963 301.707 383.189 301.637 383.436 301.637C383.791 301.637 384.152 301.75 384.52 301.977L384.156 302.955C383.898 302.803 383.641 302.727 383.383 302.727C383.152 302.727 382.945 302.797 382.762 302.938C382.578 303.074 382.447 303.266 382.369 303.512C382.252 303.887 382.193 304.297 382.193 304.742V308H381.139Z" fill="#838383"/>
<path d="M44.0986 294V283.263H45.5195V292.733H50.8076V294H44.0986Z" fill="#838383"/>
<path d="M107.113 294V283.263H109.252L111.793 290.865C112.028 291.573 112.199 292.103 112.306 292.455C112.428 292.064 112.619 291.49 112.877 290.733L115.448 283.263H117.36V294H115.99V285.013L112.87 294H111.588L108.483 284.859V294H107.113Z" fill="#838383"/>
<path d="M174.113 294V283.263H176.252L178.793 290.865C179.028 291.573 179.199 292.103 179.306 292.455C179.428 292.064 179.619 291.49 179.877 290.733L182.448 283.263H184.36V294H182.99V285.013L179.87 294H178.588L175.483 284.859V294H174.113Z" fill="#838383"/>
<path d="M240.432 290.953L241.714 290.777C241.748 291.598 241.902 292.159 242.175 292.462C242.449 292.765 242.827 292.916 243.311 292.916C243.667 292.916 243.975 292.835 244.233 292.674C244.492 292.508 244.67 292.286 244.768 292.008C244.866 291.725 244.915 291.275 244.915 290.66V283.263H246.335V290.58C246.335 291.478 246.226 292.174 246.006 292.667C245.791 293.16 245.447 293.536 244.973 293.795C244.504 294.054 243.953 294.183 243.318 294.183C242.375 294.183 241.653 293.912 241.15 293.37C240.652 292.828 240.413 292.022 240.432 290.953Z" fill="#838383"/>
<path d="M306.226 294L302.066 283.263H303.604L306.395 291.063C306.619 291.688 306.807 292.274 306.958 292.821C307.125 292.235 307.317 291.649 307.537 291.063L310.438 283.263H311.888L307.684 294H306.226Z" fill="#838383"/>
<path d="M367.674 290.55L369.014 290.433C369.078 290.97 369.224 291.412 369.454 291.759C369.688 292.101 370.049 292.379 370.538 292.594C371.026 292.804 371.575 292.909 372.186 292.909C372.728 292.909 373.206 292.828 373.621 292.667C374.036 292.506 374.344 292.286 374.544 292.008C374.749 291.725 374.852 291.417 374.852 291.085C374.852 290.748 374.754 290.455 374.559 290.206C374.363 289.952 374.041 289.74 373.592 289.569C373.304 289.457 372.667 289.283 371.68 289.049C370.694 288.81 370.003 288.585 369.607 288.375C369.095 288.106 368.711 287.774 368.458 287.379C368.208 286.979 368.084 286.532 368.084 286.039C368.084 285.497 368.238 284.991 368.545 284.522C368.853 284.049 369.302 283.69 369.893 283.446C370.484 283.202 371.141 283.08 371.863 283.08C372.659 283.08 373.36 283.209 373.965 283.468C374.576 283.722 375.044 284.098 375.372 284.596C375.699 285.094 375.875 285.658 375.899 286.288L374.537 286.39C374.463 285.711 374.214 285.199 373.79 284.852C373.37 284.505 372.747 284.332 371.922 284.332C371.062 284.332 370.435 284.491 370.04 284.808C369.649 285.121 369.454 285.499 369.454 285.943C369.454 286.329 369.593 286.646 369.871 286.896C370.145 287.145 370.857 287.401 372.01 287.665C373.167 287.923 373.96 288.15 374.39 288.346C375.015 288.634 375.477 289 375.774 289.444C376.072 289.884 376.221 290.392 376.221 290.968C376.221 291.539 376.058 292.079 375.73 292.586C375.403 293.089 374.932 293.482 374.317 293.766C373.707 294.044 373.018 294.183 372.251 294.183C371.28 294.183 370.464 294.042 369.805 293.758C369.151 293.475 368.636 293.05 368.26 292.484C367.889 291.913 367.693 291.268 367.674 290.55Z" fill="#838383"/>
<line x1="41.5" y1="12.5" x2="41.5" y2="269.5" stroke="#E2E2E2" stroke-linecap="round"/>
<line x1="113.5" y1="12.5" x2="113.5" y2="269.5" stroke="#E2E2E2" stroke-linecap="round"/>
<line x1="180.5" y1="12.5" x2="180.5" y2="269.5" stroke="#E2E2E2" stroke-linecap="round"/>
<line x1="244.5" y1="12.5" x2="244.5" y2="269.5" stroke="#E2E2E2" stroke-linecap="round"/>
<line x1="308.5" y1="12.5" x2="308.5" y2="269.5" stroke="#E2E2E2" stroke-linecap="round"/>
<line x1="373.5" y1="12.5" x2="373.5" y2="269.5" stroke="#E2E2E2" stroke-linecap="round"/>
<path d="M42 28.0001C56.0997 53.1445 71.5 84 113 72.1461C166 56 141.5 133.5 181 120.5C213.5 103.5 215 20.7302 245 17C275 13.2698 279 74.4307 308 66C355 52.3363 373 105 373 105V270H42C42 270 42 115 42 28.0001Z" fill="url(#paint0_linear_0_1)"/>
<path d="M42 28C48.5 39 67 86.5 113.5 72C162.5 56.5 143 134.5 180.5 120.5C215 107 212.5 21 244.5 17C276.5 13 274 72 308.5 65.5C343 59 362 77 373 105.5" stroke="#FF6B40" stroke-width="2" stroke-linecap="round"/>
<defs>
<linearGradient id="paint0_linear_0_1" x1="207.5" y1="16.8358" x2="207.5" y2="270" gradientUnits="userSpaceOnUse">
<stop stop-color="#FF6B40" stop-opacity="0.5"/>
<stop offset="0.953125" stop-color="#FF6B40" stop-opacity="0"/>
</linearGradient>
</defs>
</svg>
