<svg width="15" height="15" viewBox="0 0 10 10" fill="none" xmlns="http://www.w3.org/2000/svg">
<path d="M5.00024 4.36359L4.49306 5.92438H2.85181L4.17962 6.88906L3.67212 8.44969L5.00024 7.48531L6.32806 8.44969L5.82056 6.88906L7.14837 5.92438H5.50712L5.00024 4.36359ZM5.44368 6.72609L5.71743 7.56922L5.00024 7.04797L4.28243 7.56922L4.55681 6.72609L3.83931 6.20484H4.72618L5.00024 5.36172L5.27431 6.20484H6.16087L5.44368 6.72609Z" fill="#F24E1E"/>
<path d="M6.97766 4.14359V2.78453C6.97766 2.72766 6.94656 2.67984 6.9025 2.65016L8.4375 0.3125H5.49453L5.00016 1.05406L4.50578 0.3125H1.5625L3.09734 2.65C3.07469 2.66447 3.05598 2.68434 3.04289 2.70782C3.0298 2.73129 3.02274 2.75765 3.02234 2.78453V4.14359C2.32219 4.71672 1.875 5.58719 1.875 6.5625C1.875 8.28828 3.27422 9.6875 5 9.6875H5.00016C5.10656 9.6875 5.21172 9.68203 5.31531 9.67156C6.89297 9.51359 8.125 8.18203 8.125 6.5625C8.125 5.58719 7.67781 4.71672 6.97766 4.14359ZM6.37906 0.46875H7.36781L5.98891 2.53734L5.49453 1.79578L6.37906 0.46875ZM6.48328 3.27891L6.63531 3.05109C6.64344 3.07063 6.64813 3.09188 6.64813 3.11422V3.77344C6.64776 3.81461 6.63107 3.85395 6.60172 3.88281C6.13297 3.60188 5.58625 3.4375 5 3.4375C4.43553 3.43762 3.88176 3.59163 3.39828 3.88297C3.36892 3.85404 3.35223 3.81465 3.35187 3.77344V3.11422C3.35187 3.09188 3.35656 3.07047 3.36469 3.05109L3.51672 3.27906H6.48328V3.27891ZM2.63219 0.46875H3.62094L5.39031 3.12266H4.40156L2.63219 0.46875ZM5 9.21875C3.53313 9.21875 2.34375 8.02953 2.34375 6.5625C2.34375 5.09547 3.53313 3.90625 5 3.90625C6.46688 3.90625 7.65625 5.09547 7.65625 6.5625C7.65625 8.02953 6.46688 9.21875 5 9.21875Z" fill="#F24E1E"/>
</svg>
